<?xml version="1.0" encoding="UTF-8" standalone="no"?><!-- Generator: Gravit.io --><svg xmlns="http://www.w3.org/2000/svg" xmlns:xlink="http://www.w3.org/1999/xlink" style="isolation:isolate" viewBox="0 0 243.823 43.329" width="243.823pt" height="43.329pt"><defs><clipPath id="_clipPath_Tsnf5UfRjWa863P3Pkt2UtJ4QRo482Nh"><rect width="243.823" height="43.329"/></clipPath></defs><g clip-path="url(#_clipPath_Tsnf5UfRjWa863P3Pkt2UtJ4QRo482Nh)"><clipPath id="_clipPath_t80A4nvKAw6gn08cNh5kygNWAgKA9yOm"><rect x="0" y="0" width="243.823" height="43.329" transform="matrix(1,0,0,1,0,0)" fill="rgb(255,255,255)"/></clipPath><g clip-path="url(#_clipPath_t80A4nvKAw6gn08cNh5kygNWAgKA9yOm)"><g><path d=" M 21.664 43.329 C 27.469 43.329 32.911 41.1 37.006 37.006 C 41.1 32.911 43.329 27.469 43.329 21.664 C 43.329 15.86 41.1 10.418 37.006 6.323 C 32.911 2.229 27.469 0 21.664 0 C 15.86 0 10.418 2.229 6.323 6.323 C 2.229 10.418 0 15.86 0 21.664 C 0 27.469 2.229 32.911 6.323 37.006 C 10.418 41.1 15.86 43.329 21.664 43.329 Z  M 22.908 39.649 C 22.494 39.701 22.079 39.701 21.664 39.701 C 21.094 39.701 20.524 39.649 19.954 39.597 C 18.088 36.695 16.689 33.585 15.86 30.32 L 25.033 30.32 C 25.344 31.097 25.914 31.823 26.588 32.289 C 25.707 34.881 24.463 37.317 22.908 39.649 L 22.908 39.649 Z  M 27.832 38.613 C 28.817 36.799 29.594 34.985 30.216 33.067 C 31.719 32.756 32.911 31.719 33.481 30.32 L 37.472 30.32 C 35.399 34.103 31.927 37.058 27.832 38.613 Z  M 39.649 21.664 C 39.649 23.375 39.39 25.033 38.975 26.64 L 33.378 26.64 C 33.067 25.966 32.549 25.344 31.927 24.878 C 32.03 23.738 32.082 22.597 32.082 21.457 C 32.082 19.85 31.978 18.244 31.771 16.689 L 38.924 16.689 C 39.442 18.244 39.649 19.954 39.649 21.664 L 39.649 21.664 Z  M 37.472 13.009 L 31.149 13.009 C 30.475 10.158 29.491 7.463 28.143 4.872 C 32.082 6.375 35.399 9.329 37.472 13.009 Z  M 28.454 21.457 C 28.454 22.338 28.402 23.219 28.35 24.1 C 26.899 24.411 25.707 25.344 25.137 26.64 L 15.134 26.64 C 14.927 25.085 14.771 23.479 14.771 21.924 C 14.771 20.939 14.823 19.954 14.927 18.969 C 16.274 18.71 17.363 17.829 18.036 16.689 L 28.143 16.689 C 28.35 18.244 28.454 19.85 28.454 21.457 L 28.454 21.457 Z  M 20.317 3.732 C 20.783 3.68 21.25 3.68 21.664 3.68 C 22.183 3.68 22.701 3.68 23.219 3.732 C 25.085 6.634 26.485 9.744 27.314 13.009 L 18.296 13.009 C 17.985 12.128 17.415 11.351 16.689 10.78 C 17.622 8.293 18.814 5.96 20.317 3.732 Z  M 15.393 4.768 C 14.512 6.427 13.735 8.189 13.113 9.951 C 11.506 10.262 10.21 11.454 9.692 12.957 L 5.908 12.957 C 7.93 9.277 11.299 6.323 15.393 4.768 Z  M 3.68 21.664 C 3.68 19.954 3.939 18.244 4.405 16.689 L 10.055 16.689 C 10.366 17.259 10.832 17.777 11.351 18.192 C 11.247 19.436 11.143 20.68 11.143 21.924 C 11.143 23.53 11.247 25.085 11.454 26.64 L 4.405 26.64 C 3.887 25.033 3.68 23.375 3.68 21.664 Z  M 12.076 30.268 C 12.75 33.067 13.735 35.814 15.082 38.405 C 11.143 36.85 7.878 33.948 5.857 30.268 L 12.076 30.268 Z " fill="rgb(255,215,215)"/><path d=" M 68.769 34.436 L 68.769 34.436 Q 63.973 34.436 60.739 31.202 L 60.739 31.202 L 60.739 31.202 Q 57.505 27.968 57.505 23.128 L 57.505 23.128 L 57.505 23.128 Q 57.505 18.376 60.739 15.12 L 60.739 15.12 L 60.739 15.12 Q 63.973 11.886 68.769 11.886 L 68.769 11.886 L 68.769 11.886 Q 73.587 11.886 77.041 14.9 L 77.041 14.9 L 74.049 18.178 L 74.049 18.178 Q 71.739 16.374 68.769 16.374 L 68.769 16.374 L 68.769 16.374 Q 65.733 16.396 63.863 18.288 L 63.863 18.288 L 63.863 18.288 Q 62.015 20.158 62.015 23.084 L 62.015 23.084 L 62.015 23.084 Q 62.015 26.23 63.885 28.078 L 63.885 28.078 L 63.885 28.078 Q 65.755 29.926 68.791 29.926 L 68.791 29.926 L 68.791 29.926 Q 71.233 29.926 72.531 28.98 L 72.531 28.98 L 72.531 25.108 L 69.539 25.13 L 69.539 20.906 L 77.041 20.906 L 77.041 31.444 L 77.041 31.444 Q 73.609 34.436 68.769 34.436 L 68.769 34.436 Z  M 85.115 19.388 L 85.115 21.06 L 85.115 21.06 Q 86.743 19.41 89.053 19.41 L 89.053 19.41 L 89.053 19.41 Q 89.779 19.41 90.439 19.52 L 90.439 19.52 L 89.779 23.678 L 89.779 23.678 Q 89.053 23.018 87.689 22.974 L 87.689 22.974 L 87.689 22.974 Q 86.149 23.084 85.115 25.196 L 85.115 25.196 L 85.115 34.436 L 80.913 34.436 L 80.913 19.85 L 85.115 19.388 Z  M 100.009 34.59 L 100.009 34.59 Q 96.731 34.59 94.531 32.39 L 94.531 32.39 L 94.531 32.39 Q 92.353 30.19 92.353 26.934 L 92.353 26.934 L 92.353 26.934 Q 92.353 23.656 94.531 21.456 L 94.531 21.456 L 94.531 21.456 Q 96.731 19.256 100.009 19.256 L 100.009 19.256 L 100.009 19.256 Q 103.287 19.256 105.487 21.456 L 105.487 21.456 L 105.487 21.456 Q 107.687 23.656 107.687 26.934 L 107.687 26.934 L 107.687 26.934 Q 107.687 30.212 105.487 32.39 L 105.487 32.39 L 105.487 32.39 Q 103.287 34.59 100.009 34.59 L 100.009 34.59 Z  M 100.009 30.96 L 100.009 30.96 L 100.009 30.96 Q 101.703 30.96 102.781 29.794 L 102.781 29.794 L 102.781 29.794 Q 103.859 28.65 103.859 26.934 L 103.859 26.934 L 103.859 26.934 Q 103.859 25.218 102.781 24.074 L 102.781 24.074 L 102.781 24.074 Q 101.703 22.908 99.987 22.908 L 99.987 22.908 L 99.987 22.908 Q 98.293 22.908 97.215 24.074 L 97.215 24.074 L 97.215 24.074 Q 96.159 25.218 96.159 26.934 L 96.159 26.934 L 96.159 26.934 Q 96.159 28.65 97.215 29.794 L 97.215 29.794 L 97.215 29.794 Q 98.293 30.96 100.009 30.96 Z  M 119.611 29.112 L 119.611 29.112 L 119.611 19.388 L 123.813 19.388 L 123.813 34.436 L 119.611 34.436 L 119.611 33.072 L 119.611 33.072 Q 118.093 34.436 116.003 34.436 L 116.003 34.436 L 116.003 34.436 Q 113.143 34.436 111.647 32.698 L 111.647 32.698 L 111.647 32.698 Q 110.129 30.96 110.129 28.716 L 110.129 28.716 L 110.129 19.388 L 114.353 19.388 L 114.353 27.66 L 114.353 27.66 Q 114.353 29.156 115.101 29.992 L 115.101 29.992 L 115.101 29.992 Q 115.849 30.828 117.367 30.872 L 117.367 30.872 L 117.367 30.872 Q 118.687 30.784 119.611 29.112 Z  M 131.601 40.772 L 127.399 40.75 L 127.399 19.85 L 131.601 19.388 L 131.601 20.598 L 131.601 20.598 Q 133.295 19.388 134.923 19.388 L 134.923 19.388 L 134.923 19.388 Q 138.377 19.388 140.401 21.654 L 140.401 21.654 L 140.401 21.654 Q 142.447 23.898 142.447 26.912 L 142.447 26.912 L 142.447 26.912 Q 142.447 29.926 140.401 32.17 L 140.401 32.17 L 140.401 32.17 Q 138.377 34.436 134.923 34.436 L 134.923 34.436 L 134.923 34.436 Q 132.657 34.282 131.601 33.204 L 131.601 33.204 L 131.601 40.772 Z  M 131.601 25.548 L 131.601 25.548 L 131.601 27.99 L 131.601 27.99 Q 131.909 30.52 134.769 30.96 L 134.769 30.96 L 134.769 30.96 Q 138.377 30.674 138.839 27.22 L 138.839 27.22 L 138.839 27.22 Q 138.685 22.996 134.769 22.842 L 134.769 22.842 L 134.769 22.842 Q 131.909 23.304 131.601 25.548 Z  M 152.237 34.59 L 152.237 34.59 Q 148.959 34.59 146.781 32.39 L 146.781 32.39 L 146.781 32.39 Q 144.581 30.19 144.581 26.934 L 144.581 26.934 L 144.581 26.934 Q 144.581 23.656 146.781 21.456 L 146.781 21.456 L 146.781 21.456 Q 148.959 19.256 152.237 19.256 L 152.237 19.256 L 152.237 19.256 Q 155.515 19.256 157.715 21.456 L 157.715 21.456 L 157.715 21.456 Q 159.915 23.656 159.915 26.934 L 159.915 26.934 L 159.915 26.934 Q 159.915 30.212 157.715 32.39 L 157.715 32.39 L 157.715 32.39 Q 155.515 34.59 152.237 34.59 L 152.237 34.59 Z  M 152.237 30.96 L 152.237 30.96 L 152.237 30.96 Q 153.953 30.96 155.009 29.794 L 155.009 29.794 L 155.009 29.794 Q 156.087 28.65 156.087 26.934 L 156.087 26.934 L 156.087 26.934 Q 156.087 25.218 155.009 24.074 L 155.009 24.074 L 155.009 24.074 Q 153.953 22.908 152.215 22.908 L 152.215 22.908 L 152.215 22.908 Q 150.521 22.908 149.443 24.074 L 149.443 24.074 L 149.443 24.074 Q 148.387 25.218 148.387 26.934 L 148.387 26.934 L 148.387 26.934 Q 148.387 28.65 149.443 29.794 L 149.443 29.794 L 149.443 29.794 Q 150.521 30.96 152.237 30.96 Z  M 166.933 24.822 L 166.933 24.822 L 166.933 34.436 L 162.709 34.436 L 162.709 19.85 L 166.933 19.388 L 166.933 20.73 L 166.933 20.73 Q 168.341 19.41 170.541 19.41 L 170.541 19.41 L 170.541 19.41 Q 173.379 19.41 174.897 21.126 L 174.897 21.126 L 174.897 21.126 Q 176.547 19.41 179.847 19.41 L 179.847 19.41 L 179.847 19.41 Q 182.707 19.41 184.225 21.126 L 184.225 21.126 L 184.225 21.126 Q 185.721 22.864 185.721 25.13 L 185.721 25.13 L 185.721 34.436 L 181.519 34.436 L 181.519 26.164 L 181.519 26.164 Q 181.519 24.668 180.837 23.832 L 180.837 23.832 L 180.837 23.832 Q 180.155 23.018 178.637 22.974 L 178.637 22.974 L 178.637 22.974 Q 177.383 23.062 176.481 24.624 L 176.481 24.624 L 176.481 24.624 Q 176.393 25.086 176.393 25.57 L 176.393 25.57 L 176.393 34.436 L 172.191 34.436 L 172.191 26.164 L 172.191 26.164 Q 172.191 24.668 171.509 23.832 L 171.509 23.832 L 171.509 23.832 Q 170.827 23.018 169.309 22.974 L 169.309 22.974 L 169.309 22.974 Q 167.923 23.062 166.933 24.822 Z  M 191.375 23.766 L 189.725 21.214 L 189.725 21.214 Q 192.585 19.41 196.347 19.41 L 196.347 19.41 L 196.347 19.41 Q 199.053 19.41 200.615 20.906 L 200.615 20.906 L 200.615 20.906 Q 202.199 22.424 202.199 25.416 L 202.199 25.416 L 202.199 34.436 L 197.997 34.436 L 197.997 33.248 L 197.997 33.248 Q 196.149 34.436 194.675 34.436 L 194.675 34.436 L 194.675 34.436 Q 191.683 34.436 190.165 33.16 L 190.165 33.16 L 190.165 33.16 Q 188.669 31.884 188.669 29.64 L 188.669 29.64 L 188.669 29.64 Q 188.669 27.528 190.099 25.878 L 190.099 25.878 L 190.099 25.878 Q 191.507 24.228 194.675 24.228 L 194.675 24.228 L 194.675 24.228 Q 196.149 24.228 197.997 25.13 L 197.997 25.13 L 197.997 24.668 L 197.997 24.668 Q 197.953 23.018 195.577 22.864 L 195.577 22.864 L 195.577 22.864 Q 192.871 22.864 191.375 23.766 L 191.375 23.766 Z  M 197.997 29.926 L 197.997 29.926 L 197.997 28.232 L 197.997 28.232 Q 197.403 27.066 195.137 27.066 L 195.137 27.066 L 195.137 27.066 Q 192.431 27.374 192.277 29.178 L 192.277 29.178 L 192.277 29.178 Q 192.431 30.96 195.137 31.114 L 195.137 31.114 L 195.137 31.114 Q 197.403 31.114 197.997 29.926 Z  M 210.185 24.888 L 210.185 24.888 L 210.185 34.436 L 205.961 34.436 L 205.961 19.85 L 210.185 19.388 L 210.185 20.752 L 210.185 20.752 Q 211.703 19.41 213.793 19.41 L 213.793 19.41 L 213.793 19.41 Q 216.653 19.41 218.149 21.126 L 218.149 21.126 L 218.149 21.126 Q 219.645 22.864 219.645 25.13 L 219.645 25.13 L 219.645 34.436 L 215.443 34.436 L 215.443 26.164 L 215.443 26.164 Q 215.443 24.668 214.695 23.832 L 214.695 23.832 L 214.695 23.832 Q 213.925 23.018 212.407 22.974 L 212.407 22.974 L 212.407 22.974 Q 211.109 23.062 210.185 24.888 Z  M 227.389 34.436 L 223.187 34.436 L 223.187 19.388 L 227.389 19.388 L 227.389 34.436 Z  M 223.033 15.802 L 223.033 15.802 L 223.033 15.802 Q 223.033 16.704 223.627 17.298 L 223.627 17.298 L 223.627 17.298 Q 224.243 17.892 225.299 17.892 L 225.299 17.892 L 225.299 17.892 Q 226.333 17.892 226.949 17.298 L 226.949 17.298 L 226.949 17.298 Q 227.543 16.704 227.543 15.802 L 227.543 15.802 L 227.543 15.802 Q 227.543 14.9 226.949 14.284 L 226.949 14.284 L 226.949 14.284 Q 226.333 13.668 225.255 13.668 L 225.255 13.668 L 225.255 13.668 Q 224.243 13.668 223.627 14.284 L 223.627 14.284 L 223.627 14.284 Q 223.033 14.9 223.033 15.802 Z  M 232.999 23.766 L 231.349 21.214 L 231.349 21.214 Q 234.209 19.41 237.971 19.41 L 237.971 19.41 L 237.971 19.41 Q 240.677 19.41 242.261 20.906 L 242.261 20.906 L 242.261 20.906 Q 243.823 22.424 243.823 25.416 L 243.823 25.416 L 243.823 34.436 L 239.621 34.436 L 239.621 33.248 L 239.621 33.248 Q 237.795 34.436 236.321 34.436 L 236.321 34.436 L 236.321 34.436 Q 233.307 34.436 231.811 33.16 L 231.811 33.16 L 231.811 33.16 Q 230.293 31.884 230.293 29.64 L 230.293 29.64 L 230.293 29.64 Q 230.293 27.528 231.723 25.878 L 231.723 25.878 L 231.723 25.878 Q 233.131 24.228 236.321 24.228 L 236.321 24.228 L 236.321 24.228 Q 237.773 24.228 239.621 25.13 L 239.621 25.13 L 239.621 24.668 L 239.621 24.668 Q 239.599 23.018 237.223 22.864 L 237.223 22.864 L 237.223 22.864 Q 234.517 22.864 232.999 23.766 L 232.999 23.766 Z  M 239.621 29.926 L 239.621 29.926 L 239.621 28.232 L 239.621 28.232 Q 239.027 27.066 236.761 27.066 L 236.761 27.066 L 236.761 27.066 Q 234.055 27.374 233.901 29.178 L 233.901 29.178 L 233.901 29.178 Q 234.055 30.96 236.761 31.114 L 236.761 31.114 L 236.761 31.114 Q 239.027 31.114 239.621 29.926 Z " fill="rgb(253,45,1)"/></g></g></g></svg>