<?xml version="1.0" encoding="UTF-8" standalone="no"?><!-- Generator: Gravit.io --><svg xmlns="http://www.w3.org/2000/svg" xmlns:xlink="http://www.w3.org/1999/xlink" style="isolation:isolate" viewBox="0 0 43.329 43.329" width="43.329pt" height="43.329pt"><defs><clipPath id="_clipPath_da0TyBMcWKma3U0fy7p0N4ECc3WkXmbq"><rect width="43.329" height="43.329"/></clipPath></defs><g clip-path="url(#_clipPath_da0TyBMcWKma3U0fy7p0N4ECc3WkXmbq)"><path d=" M 21.664 43.329 C 27.469 43.329 32.911 41.1 37.006 37.006 C 41.1 32.911 43.329 27.469 43.329 21.664 C 43.329 15.86 41.1 10.418 37.006 6.323 C 32.911 2.229 27.469 0 21.664 0 C 15.86 0 10.418 2.229 6.323 6.323 C 2.229 10.418 0 15.86 0 21.664 C 0 27.469 2.229 32.911 6.323 37.006 C 10.418 41.1 15.86 43.329 21.664 43.329 Z  M 22.908 39.649 C 22.494 39.701 22.079 39.701 21.664 39.701 C 21.094 39.701 20.524 39.649 19.954 39.597 C 18.088 36.695 16.689 33.585 15.86 30.32 L 25.033 30.32 C 25.344 31.097 25.914 31.823 26.588 32.289 C 25.707 34.881 24.463 37.317 22.908 39.649 L 22.908 39.649 Z  M 27.832 38.613 C 28.817 36.799 29.594 34.985 30.216 33.067 C 31.719 32.756 32.911 31.719 33.481 30.32 L 37.472 30.32 C 35.399 34.103 31.927 37.058 27.832 38.613 Z  M 39.649 21.664 C 39.649 23.375 39.39 25.033 38.975 26.64 L 33.378 26.64 C 33.067 25.966 32.549 25.344 31.927 24.878 C 32.03 23.738 32.082 22.597 32.082 21.457 C 32.082 19.85 31.978 18.244 31.771 16.689 L 38.924 16.689 C 39.442 18.244 39.649 19.954 39.649 21.664 L 39.649 21.664 Z  M 37.472 13.009 L 31.149 13.009 C 30.475 10.158 29.491 7.463 28.143 4.872 C 32.082 6.375 35.399 9.329 37.472 13.009 Z  M 28.454 21.457 C 28.454 22.338 28.402 23.219 28.35 24.1 C 26.899 24.411 25.707 25.344 25.137 26.64 L 15.134 26.64 C 14.927 25.085 14.771 23.479 14.771 21.924 C 14.771 20.939 14.823 19.954 14.927 18.969 C 16.274 18.71 17.363 17.829 18.036 16.689 L 28.143 16.689 C 28.35 18.244 28.454 19.85 28.454 21.457 L 28.454 21.457 Z  M 20.317 3.732 C 20.783 3.68 21.25 3.68 21.664 3.68 C 22.183 3.68 22.701 3.68 23.219 3.732 C 25.085 6.634 26.485 9.744 27.314 13.009 L 18.296 13.009 C 17.985 12.128 17.415 11.351 16.689 10.78 C 17.622 8.293 18.814 5.96 20.317 3.732 Z  M 15.393 4.768 C 14.512 6.427 13.735 8.189 13.113 9.951 C 11.506 10.262 10.21 11.454 9.692 12.957 L 5.908 12.957 C 7.93 9.277 11.299 6.323 15.393 4.768 Z  M 3.68 21.664 C 3.68 19.954 3.939 18.244 4.405 16.689 L 10.055 16.689 C 10.366 17.259 10.832 17.777 11.351 18.192 C 11.247 19.436 11.143 20.68 11.143 21.924 C 11.143 23.53 11.247 25.085 11.454 26.64 L 4.405 26.64 C 3.887 25.033 3.68 23.375 3.68 21.664 Z  M 12.076 30.268 C 12.75 33.067 13.735 35.814 15.082 38.405 C 11.143 36.85 7.878 33.948 5.857 30.268 L 12.076 30.268 Z " fill="rgb(253,45,1)"/></g></svg>