<?xml version="1.0" encoding="UTF-8" standalone="no"?><!-- Generator: Gravit.io --><svg xmlns="http://www.w3.org/2000/svg" xmlns:xlink="http://www.w3.org/1999/xlink" style="isolation:isolate" viewBox="0 0 237.132 175" width="237.132pt" height="175pt"><defs><clipPath id="_clipPath_bSYx8Zf7FrFasZZem5i92xi261SAlPzO"><rect width="237.132" height="175"/></clipPath></defs><g clip-path="url(#_clipPath_bSYx8Zf7FrFasZZem5i92xi261SAlPzO)"><path d=" M 118.566 101.434 C 128.417 101.434 137.652 97.652 144.6 90.704 C 151.548 83.755 155.33 74.52 155.33 64.67 C 155.33 54.819 151.548 45.584 144.6 38.636 C 137.652 31.688 128.417 27.906 118.566 27.906 C 108.715 27.906 99.48 31.688 92.532 38.636 C 85.584 45.584 81.802 54.819 81.802 64.67 C 81.802 74.52 85.584 83.755 92.532 90.704 C 99.48 97.652 108.715 101.434 118.566 101.434 Z  M 120.677 95.189 C 119.973 95.277 119.27 95.277 118.566 95.277 C 117.599 95.277 116.631 95.189 115.664 95.101 C 112.497 90.176 110.123 84.899 108.715 79.358 L 124.283 79.358 C 124.811 80.677 125.778 81.908 126.921 82.7 C 125.426 87.097 123.315 91.231 120.677 95.189 L 120.677 95.189 Z  M 129.032 93.43 C 130.703 90.352 132.023 87.273 133.078 84.019 C 135.629 83.491 137.652 81.732 138.619 79.358 L 145.391 79.358 C 141.873 85.778 135.981 90.791 129.032 93.43 Z  M 149.085 64.67 C 149.085 67.572 148.646 70.387 147.942 73.113 L 138.443 73.113 C 137.915 71.97 137.036 70.914 135.981 70.123 C 136.156 68.188 136.244 66.253 136.244 64.318 C 136.244 61.591 136.068 58.865 135.717 56.226 L 147.854 56.226 C 148.734 58.865 149.085 61.767 149.085 64.67 L 149.085 64.67 Z  M 145.391 49.982 L 134.661 49.982 C 133.518 45.144 131.847 40.571 129.56 36.173 C 136.244 38.724 141.873 43.737 145.391 49.982 Z  M 130.088 64.318 C 130.088 65.813 130 67.308 129.912 68.803 C 127.449 69.331 125.426 70.914 124.459 73.113 L 107.484 73.113 C 107.132 70.475 106.868 67.748 106.868 65.109 C 106.868 63.438 106.956 61.767 107.132 60.096 C 109.419 59.656 111.266 58.161 112.409 56.226 L 129.56 56.226 C 129.912 58.865 130.088 61.591 130.088 64.318 L 130.088 64.318 Z  M 116.279 34.238 C 117.071 34.15 117.862 34.15 118.566 34.15 C 119.446 34.15 120.325 34.15 121.205 34.238 C 124.371 39.164 126.746 44.441 128.153 49.982 L 112.849 49.982 C 112.321 48.487 111.354 47.167 110.123 46.2 C 111.706 41.978 113.729 38.02 116.279 34.238 Z  M 107.924 35.997 C 106.429 38.812 105.109 41.802 104.054 44.793 C 101.327 45.32 99.129 47.343 98.249 49.894 L 91.829 49.894 C 95.259 43.649 100.976 38.636 107.924 35.997 Z  M 88.047 64.67 C 88.047 61.767 88.486 58.865 89.278 56.226 L 98.865 56.226 C 99.392 57.194 100.184 58.073 101.064 58.777 C 100.888 60.888 100.712 62.999 100.712 65.109 C 100.712 67.836 100.888 70.475 101.239 73.113 L 89.278 73.113 C 88.398 70.387 88.047 67.572 88.047 64.67 Z  M 102.295 79.27 C 103.438 84.019 105.109 88.681 107.396 93.078 C 100.712 90.44 95.171 85.514 91.741 79.27 L 102.295 79.27 Z " fill="rgb(255,215,215)"/><path d=" M 14.336 139.03 L 14.336 139.03 Q 8.232 139.03 4.116 134.914 L 4.116 134.914 L 4.116 134.914 Q 0 130.798 0 124.638 L 0 124.638 L 0 124.638 Q 0 118.59 4.116 114.446 L 4.116 114.446 L 4.116 114.446 Q 8.232 110.33 14.336 110.33 L 14.336 110.33 L 14.336 110.33 Q 20.468 110.33 24.864 114.166 L 24.864 114.166 L 21.056 118.338 L 21.056 118.338 Q 18.116 116.042 14.336 116.042 L 14.336 116.042 L 14.336 116.042 Q 10.472 116.07 8.092 118.478 L 8.092 118.478 L 8.092 118.478 Q 5.74 120.858 5.74 124.582 L 5.74 124.582 L 5.74 124.582 Q 5.74 128.586 8.12 130.938 L 8.12 130.938 L 8.12 130.938 Q 10.5 133.29 14.364 133.29 L 14.364 133.29 L 14.364 133.29 Q 17.472 133.29 19.124 132.086 L 19.124 132.086 L 19.124 127.158 L 15.316 127.186 L 15.316 121.81 L 24.864 121.81 L 24.864 135.222 L 24.864 135.222 Q 20.496 139.03 14.336 139.03 L 14.336 139.03 Z  M 35.14 119.878 L 35.14 122.006 L 35.14 122.006 Q 37.212 119.906 40.152 119.906 L 40.152 119.906 L 40.152 119.906 Q 41.076 119.906 41.916 120.046 L 41.916 120.046 L 41.076 125.338 L 41.076 125.338 Q 40.152 124.498 38.416 124.442 L 38.416 124.442 L 38.416 124.442 Q 36.456 124.582 35.14 127.27 L 35.14 127.27 L 35.14 139.03 L 29.792 139.03 L 29.792 120.466 L 35.14 119.878 Z  M 54.096 139.226 L 54.096 139.226 Q 49.924 139.226 47.124 136.426 L 47.124 136.426 L 47.124 136.426 Q 44.352 133.626 44.352 129.482 L 44.352 129.482 L 44.352 129.482 Q 44.352 125.31 47.124 122.51 L 47.124 122.51 L 47.124 122.51 Q 49.924 119.71 54.096 119.71 L 54.096 119.71 L 54.096 119.71 Q 58.268 119.71 61.068 122.51 L 61.068 122.51 L 61.068 122.51 Q 63.868 125.31 63.868 129.482 L 63.868 129.482 L 63.868 129.482 Q 63.868 133.654 61.068 136.426 L 61.068 136.426 L 61.068 136.426 Q 58.268 139.226 54.096 139.226 L 54.096 139.226 Z  M 54.096 134.606 L 54.096 134.606 L 54.096 134.606 Q 56.252 134.606 57.624 133.122 L 57.624 133.122 L 57.624 133.122 Q 58.996 131.666 58.996 129.482 L 58.996 129.482 L 58.996 129.482 Q 58.996 127.298 57.624 125.842 L 57.624 125.842 L 57.624 125.842 Q 56.252 124.358 54.068 124.358 L 54.068 124.358 L 54.068 124.358 Q 51.912 124.358 50.54 125.842 L 50.54 125.842 L 50.54 125.842 Q 49.196 127.298 49.196 129.482 L 49.196 129.482 L 49.196 129.482 Q 49.196 131.666 50.54 133.122 L 50.54 133.122 L 50.54 133.122 Q 51.912 134.606 54.096 134.606 Z  M 79.044 132.254 L 79.044 132.254 L 79.044 119.878 L 84.392 119.878 L 84.392 139.03 L 79.044 139.03 L 79.044 137.294 L 79.044 137.294 Q 77.112 139.03 74.452 139.03 L 74.452 139.03 L 74.452 139.03 Q 70.812 139.03 68.908 136.818 L 68.908 136.818 L 68.908 136.818 Q 66.976 134.606 66.976 131.75 L 66.976 131.75 L 66.976 119.878 L 72.352 119.878 L 72.352 130.406 L 72.352 130.406 Q 72.352 132.31 73.304 133.374 L 73.304 133.374 L 73.304 133.374 Q 74.256 134.438 76.188 134.494 L 76.188 134.494 L 76.188 134.494 Q 77.868 134.382 79.044 132.254 Z  M 94.304 147.094 L 88.956 147.066 L 88.956 120.466 L 94.304 119.878 L 94.304 121.418 L 94.304 121.418 Q 96.46 119.878 98.532 119.878 L 98.532 119.878 L 98.532 119.878 Q 102.928 119.878 105.504 122.762 L 105.504 122.762 L 105.504 122.762 Q 108.108 125.618 108.108 129.454 L 108.108 129.454 L 108.108 129.454 Q 108.108 133.29 105.504 136.146 L 105.504 136.146 L 105.504 136.146 Q 102.928 139.03 98.532 139.03 L 98.532 139.03 L 98.532 139.03 Q 95.648 138.834 94.304 137.462 L 94.304 137.462 L 94.304 147.094 Z  M 94.304 127.718 L 94.304 127.718 L 94.304 130.826 L 94.304 130.826 Q 94.696 134.046 98.336 134.606 L 98.336 134.606 L 98.336 134.606 Q 102.928 134.242 103.516 129.846 L 103.516 129.846 L 103.516 129.846 Q 103.32 124.47 98.336 124.274 L 98.336 124.274 L 98.336 124.274 Q 94.696 124.862 94.304 127.718 Z  M 120.568 139.226 L 120.568 139.226 Q 116.396 139.226 113.624 136.426 L 113.624 136.426 L 113.624 136.426 Q 110.824 133.626 110.824 129.482 L 110.824 129.482 L 110.824 129.482 Q 110.824 125.31 113.624 122.51 L 113.624 122.51 L 113.624 122.51 Q 116.396 119.71 120.568 119.71 L 120.568 119.71 L 120.568 119.71 Q 124.74 119.71 127.54 122.51 L 127.54 122.51 L 127.54 122.51 Q 130.34 125.31 130.34 129.482 L 130.34 129.482 L 130.34 129.482 Q 130.34 133.654 127.54 136.426 L 127.54 136.426 L 127.54 136.426 Q 124.74 139.226 120.568 139.226 L 120.568 139.226 Z  M 120.568 134.606 L 120.568 134.606 L 120.568 134.606 Q 122.752 134.606 124.096 133.122 L 124.096 133.122 L 124.096 133.122 Q 125.468 131.666 125.468 129.482 L 125.468 129.482 L 125.468 129.482 Q 125.468 127.298 124.096 125.842 L 124.096 125.842 L 124.096 125.842 Q 122.752 124.358 120.54 124.358 L 120.54 124.358 L 120.54 124.358 Q 118.384 124.358 117.012 125.842 L 117.012 125.842 L 117.012 125.842 Q 115.668 127.298 115.668 129.482 L 115.668 129.482 L 115.668 129.482 Q 115.668 131.666 117.012 133.122 L 117.012 133.122 L 117.012 133.122 Q 118.384 134.606 120.568 134.606 Z  M 139.272 126.794 L 139.272 126.794 L 139.272 139.03 L 133.896 139.03 L 133.896 120.466 L 139.272 119.878 L 139.272 121.586 L 139.272 121.586 Q 141.064 119.906 143.864 119.906 L 143.864 119.906 L 143.864 119.906 Q 147.476 119.906 149.408 122.09 L 149.408 122.09 L 149.408 122.09 Q 151.508 119.906 155.708 119.906 L 155.708 119.906 L 155.708 119.906 Q 159.348 119.906 161.28 122.09 L 161.28 122.09 L 161.28 122.09 Q 163.184 124.302 163.184 127.186 L 163.184 127.186 L 163.184 139.03 L 157.836 139.03 L 157.836 128.502 L 157.836 128.502 Q 157.836 126.598 156.968 125.534 L 156.968 125.534 L 156.968 125.534 Q 156.1 124.498 154.168 124.442 L 154.168 124.442 L 154.168 124.442 Q 152.572 124.554 151.424 126.542 L 151.424 126.542 L 151.424 126.542 Q 151.312 127.13 151.312 127.746 L 151.312 127.746 L 151.312 139.03 L 145.964 139.03 L 145.964 128.502 L 145.964 128.502 Q 145.964 126.598 145.096 125.534 L 145.096 125.534 L 145.096 125.534 Q 144.228 124.498 142.296 124.442 L 142.296 124.442 L 142.296 124.442 Q 140.532 124.554 139.272 126.794 Z  M 170.38 125.45 L 168.28 122.202 L 168.28 122.202 Q 171.92 119.906 176.708 119.906 L 176.708 119.906 L 176.708 119.906 Q 180.152 119.906 182.14 121.81 L 182.14 121.81 L 182.14 121.81 Q 184.156 123.742 184.156 127.55 L 184.156 127.55 L 184.156 139.03 L 178.808 139.03 L 178.808 137.518 L 178.808 137.518 Q 176.456 139.03 174.58 139.03 L 174.58 139.03 L 174.58 139.03 Q 170.772 139.03 168.84 137.406 L 168.84 137.406 L 168.84 137.406 Q 166.936 135.782 166.936 132.926 L 166.936 132.926 L 166.936 132.926 Q 166.936 130.238 168.756 128.138 L 168.756 128.138 L 168.756 128.138 Q 170.548 126.038 174.58 126.038 L 174.58 126.038 L 174.58 126.038 Q 176.456 126.038 178.808 127.186 L 178.808 127.186 L 178.808 126.598 L 178.808 126.598 Q 178.752 124.498 175.728 124.302 L 175.728 124.302 L 175.728 124.302 Q 172.284 124.302 170.38 125.45 L 170.38 125.45 Z  M 178.808 133.29 L 178.808 133.29 L 178.808 131.134 L 178.808 131.134 Q 178.052 129.65 175.168 129.65 L 175.168 129.65 L 175.168 129.65 Q 171.724 130.042 171.528 132.338 L 171.528 132.338 L 171.528 132.338 Q 171.724 134.606 175.168 134.802 L 175.168 134.802 L 175.168 134.802 Q 178.052 134.802 178.808 133.29 Z  M 194.32 126.878 L 194.32 126.878 L 194.32 139.03 L 188.944 139.03 L 188.944 120.466 L 194.32 119.878 L 194.32 121.614 L 194.32 121.614 Q 196.252 119.906 198.912 119.906 L 198.912 119.906 L 198.912 119.906 Q 202.552 119.906 204.456 122.09 L 204.456 122.09 L 204.456 122.09 Q 206.36 124.302 206.36 127.186 L 206.36 127.186 L 206.36 139.03 L 201.012 139.03 L 201.012 128.502 L 201.012 128.502 Q 201.012 126.598 200.06 125.534 L 200.06 125.534 L 200.06 125.534 Q 199.08 124.498 197.148 124.442 L 197.148 124.442 L 197.148 124.442 Q 195.496 124.554 194.32 126.878 Z  M 216.216 139.03 L 210.868 139.03 L 210.868 119.878 L 216.216 119.878 L 216.216 139.03 Z  M 210.672 115.314 L 210.672 115.314 L 210.672 115.314 Q 210.672 116.462 211.428 117.218 L 211.428 117.218 L 211.428 117.218 Q 212.212 117.974 213.556 117.974 L 213.556 117.974 L 213.556 117.974 Q 214.872 117.974 215.656 117.218 L 215.656 117.218 L 215.656 117.218 Q 216.412 116.462 216.412 115.314 L 216.412 115.314 L 216.412 115.314 Q 216.412 114.166 215.656 113.382 L 215.656 113.382 L 215.656 113.382 Q 214.872 112.598 213.5 112.598 L 213.5 112.598 L 213.5 112.598 Q 212.212 112.598 211.428 113.382 L 211.428 113.382 L 211.428 113.382 Q 210.672 114.166 210.672 115.314 Z  M 223.356 125.45 L 221.256 122.202 L 221.256 122.202 Q 224.896 119.906 229.684 119.906 L 229.684 119.906 L 229.684 119.906 Q 233.128 119.906 235.144 121.81 L 235.144 121.81 L 235.144 121.81 Q 237.132 123.742 237.132 127.55 L 237.132 127.55 L 237.132 139.03 L 231.784 139.03 L 231.784 137.518 L 231.784 137.518 Q 229.46 139.03 227.584 139.03 L 227.584 139.03 L 227.584 139.03 Q 223.748 139.03 221.844 137.406 L 221.844 137.406 L 221.844 137.406 Q 219.912 135.782 219.912 132.926 L 219.912 132.926 L 219.912 132.926 Q 219.912 130.238 221.732 128.138 L 221.732 128.138 L 221.732 128.138 Q 223.524 126.038 227.584 126.038 L 227.584 126.038 L 227.584 126.038 Q 229.432 126.038 231.784 127.186 L 231.784 127.186 L 231.784 126.598 L 231.784 126.598 Q 231.756 124.498 228.732 124.302 L 228.732 124.302 L 228.732 124.302 Q 225.288 124.302 223.356 125.45 L 223.356 125.45 Z  M 231.784 133.29 L 231.784 133.29 L 231.784 131.134 L 231.784 131.134 Q 231.028 129.65 228.144 129.65 L 228.144 129.65 L 228.144 129.65 Q 224.7 130.042 224.504 132.338 L 224.504 132.338 L 224.504 132.338 Q 224.7 134.606 228.144 134.802 L 228.144 134.802 L 228.144 134.802 Q 231.028 134.802 231.784 133.29 Z " fill="rgb(253,45,1)"/></g></svg>